<svg width="42" height="44" viewBox="0 0 42 44" fill="none" xmlns="http://www.w3.org/2000/svg">
<path d="M40.9575 33.8125L34.86 23.2825C36.1077 20.9909 36.7577 18.4218 36.75 15.8125C36.75 11.6353 35.0906 7.62927 32.1369 4.67557C29.1832 1.72187 25.1772 0.0625 21 0.0625C16.8228 0.0625 12.8168 1.72187 9.86306 4.67557C6.90937 7.62927 5.25 11.6353 5.25 15.8125C5.24225 18.4218 5.89227 20.9909 7.14 23.2825L1.0425 33.8125C0.844634 34.1552 0.740653 34.544 0.741044 34.9397C0.741435 35.3355 0.846184 35.7241 1.04472 36.0664C1.24326 36.4087 1.52857 36.6926 1.87186 36.8894C2.21515 37.0863 2.60428 37.1891 3 37.1875H9.4575L12.7425 42.7225C12.8532 42.9059 12.9896 43.0726 13.1475 43.2175C13.5646 43.6195 14.1207 43.8452 14.7 43.8475H15.015C15.3547 43.801 15.6792 43.6775 15.9639 43.4864C16.2486 43.2954 16.4858 43.0418 16.6575 42.745L21 35.275L25.3425 42.8125C25.5167 43.1051 25.755 43.3543 26.0396 43.5414C26.3241 43.7284 26.6473 43.8485 26.985 43.8925H27.3C27.8871 43.896 28.4523 43.6699 28.875 43.2625C29.0263 43.1259 29.1554 42.9665 29.2575 42.79L32.5425 37.255H39C39.3965 37.2566 39.7863 37.1534 40.1301 36.9558C40.4738 36.7582 40.7593 36.4734 40.9575 36.13C41.1677 35.7801 41.2788 35.3795 41.2788 34.9712C41.2788 34.563 41.1677 34.1624 40.9575 33.8125ZM14.6775 37.255L12.675 33.9025C12.4778 33.5699 12.1982 33.2937 11.8632 33.1006C11.5283 32.9075 11.1491 32.8039 10.7625 32.8H6.87L10.0875 27.22C12.3031 29.355 15.0956 30.7942 18.12 31.36L14.6775 37.255ZM21 27.0625C18.775 27.0625 16.5999 26.4027 14.7498 25.1665C12.8998 23.9304 11.4578 22.1734 10.6064 20.1177C9.75487 18.062 9.53208 15.8 9.96616 13.6177C10.4002 11.4354 11.4717 9.43089 13.045 7.85755C14.6184 6.28421 16.6229 5.21275 18.8052 4.77867C20.9875 4.34458 23.2495 4.56737 25.3052 5.41886C27.3609 6.27034 29.1179 7.71228 30.354 9.56234C31.5902 11.4124 32.25 13.5875 32.25 15.8125C32.25 18.7962 31.0647 21.6577 28.9549 23.7675C26.8452 25.8772 23.9837 27.0625 21 27.0625ZM31.2375 32.8C30.8508 32.8039 30.4717 32.9075 30.1367 33.1006C29.8018 33.2937 29.5222 33.5699 29.325 33.9025L27.3225 37.255L23.9025 31.2925C26.9163 30.7151 29.6984 29.2772 31.9125 27.1525L35.13 32.7325L31.2375 32.8Z" fill="#C2C7E3"/>
</svg>
