<svg width="36" height="34" viewBox="0 0 36 34" fill="none" xmlns="http://www.w3.org/2000/svg">
<path d="M12.6 26H19.8C22.1869 26 24.4761 25.0518 26.164 23.364C27.8518 21.6762 28.8 19.387 28.8 17V15.2H30.6C32.0322 15.2 33.4057 14.6311 34.4184 13.6184C35.4311 12.6057 36 11.2322 36 9.80005C36 8.36788 35.4311 6.99437 34.4184 5.98167C33.4057 4.96898 32.0322 4.40005 30.6 4.40005H28.8V2.60005C28.8 2.12266 28.6104 1.66482 28.2728 1.32726C27.9352 0.989691 27.4774 0.800049 27 0.800049H5.4C4.92261 0.800049 4.46477 0.989691 4.12721 1.32726C3.78964 1.66482 3.6 2.12266 3.6 2.60005V17C3.6 19.387 4.54821 21.6762 6.23604 23.364C7.92387 25.0518 10.2131 26 12.6 26ZM28.8 8.00005H30.6C31.0774 8.00005 31.5352 8.18969 31.8728 8.52726C32.2104 8.86482 32.4 9.32266 32.4 9.80005C32.4 10.2774 32.2104 10.7353 31.8728 11.0728C31.5352 11.4104 31.0774 11.6 30.6 11.6H28.8V8.00005ZM7.2 4.40005H25.2V17C25.2 18.4322 24.6311 19.8057 23.6184 20.8184C22.6057 21.8311 21.2322 22.4 19.8 22.4H12.6C11.1678 22.4 9.79432 21.8311 8.78162 20.8184C7.76893 19.8057 7.2 18.4322 7.2 17V4.40005ZM34.2 29.6H1.8C1.32261 29.6 0.864773 29.7897 0.527208 30.1273C0.189642 30.4648 0 30.9227 0 31.4C0 31.8774 0.189642 32.3353 0.527208 32.6728C0.864773 33.0104 1.32261 33.2 1.8 33.2H34.2C34.6774 33.2 35.1352 33.0104 35.4728 32.6728C35.8104 32.3353 36 31.8774 36 31.4C36 30.9227 35.8104 30.4648 35.4728 30.1273C35.1352 29.7897 34.6774 29.6 34.2 29.6Z" fill="#C2C7E3"/>
</svg>
