<svg width="46" height="44" viewBox="0 0 46 44" fill="none" xmlns="http://www.w3.org/2000/svg">
<path d="M40.28 10.48C37.9873 9.275 35.3136 9.01652 32.8325 9.75999C32.7117 7.23654 31.6242 4.85642 29.7956 3.11327C27.967 1.37012 25.5376 0.397705 23.0112 0.397705C20.4849 0.397705 18.0555 1.37012 16.2269 3.11327C14.3983 4.85642 13.3108 7.23654 13.19 9.75999C10.7156 9.01482 8.04959 9.2484 5.7425 10.4125C4.04351 11.3055 2.64304 12.6762 1.71378 14.3556C0.784525 16.0351 0.367125 17.9497 0.513053 19.8636C0.658982 21.7774 1.36186 23.6066 2.535 25.1258C3.70815 26.6449 5.30026 27.7874 7.115 28.4125C5.95667 30.0607 5.32872 32.023 5.315 34.0375C5.32499 34.6031 5.37764 35.1672 5.4725 35.725C5.85141 38.01 7.03018 40.0859 8.79832 41.582C10.5665 43.0781 12.8088 43.897 15.125 43.8925C15.6044 43.9253 16.0856 43.9253 16.565 43.8925C19.1368 43.4873 21.4472 42.0898 23 40C24.569 42.056 26.8772 43.4199 29.435 43.8025C29.9144 43.8354 30.3956 43.8354 30.875 43.8025C32.6708 43.8004 34.4316 43.3054 35.9655 42.3715C37.4994 41.4375 38.7474 40.1005 39.5737 38.506C40.3999 36.9115 40.7727 35.1208 40.6512 33.3291C40.5298 31.5374 39.9188 29.8134 38.885 28.345C40.7086 27.7307 42.3113 26.5937 43.4935 25.0754C44.6758 23.5572 45.3854 21.7248 45.5341 19.8062C45.6828 17.8877 45.264 15.9678 44.3298 14.2855C43.3955 12.6033 41.9872 11.2329 40.28 10.345V10.48ZM19.265 6.11499C20.2702 5.15234 21.6082 4.61496 23 4.61496C24.3918 4.61496 25.7298 5.15234 26.735 6.11499C27.5024 6.88356 28.0235 7.86328 28.2319 8.92922C28.4403 9.99515 28.3265 11.099 27.905 12.1L27.32 13.4275L25.835 14.7325C24.922 14.4191 23.9652 14.252 23 14.2375C21.7525 14.2387 20.5189 14.4992 19.3775 15.0025L18.1175 12.1C17.6808 11.1034 17.5567 9.99783 17.7616 8.92925C17.9665 7.86068 18.4907 6.87938 19.265 6.11499ZM5.54 21.505C5.03771 20.3997 4.92761 19.1561 5.2279 17.9798C5.52819 16.8035 6.2209 15.7648 7.19152 15.0355C8.16213 14.3063 9.35255 13.93 10.566 13.969C11.7794 14.008 12.9432 14.4599 13.865 15.25L14.9675 16.2175L15.755 18.0175C14.6279 19.5256 14.0129 21.3548 14 23.2375C13.9733 23.5745 13.9733 23.913 14 24.25H12.7625L10.8725 24.43C9.79148 24.5441 8.70142 24.325 7.74835 23.8023C6.79529 23.2795 6.02476 22.4779 5.54 21.505ZM20.39 35.185C20.1191 36.3861 19.4426 37.4572 18.4744 38.2179C17.5062 38.9786 16.3054 39.3823 15.0743 39.3612C13.8431 39.3401 12.6569 38.8953 11.7154 38.1019C10.7738 37.3084 10.1345 36.2147 9.905 35.005C9.88343 34.6904 9.88343 34.3746 9.905 34.06C9.91315 33.1455 10.1604 32.249 10.6222 31.4596C11.084 30.6701 11.7443 30.0153 12.5375 29.56L13.685 28.75L15.7325 28.525C17.023 30.3203 18.9292 31.5777 21.0875 32.0575L20.39 35.185ZM23 27.7375C22.11 27.7375 21.24 27.4736 20.4999 26.9791C19.7599 26.4846 19.1831 25.7818 18.8425 24.9596C18.5019 24.1373 18.4128 23.2325 18.5865 22.3596C18.7601 21.4867 19.1887 20.6848 19.818 20.0555C20.4474 19.4262 21.2492 18.9976 22.1221 18.824C22.995 18.6503 23.8998 18.7394 24.7221 19.08C25.5443 19.4206 26.2471 19.9974 26.7416 20.7374C27.2361 21.4774 27.5 22.3475 27.5 23.2375C27.5 24.431 27.0259 25.5756 26.182 26.4195C25.3381 27.2634 24.1935 27.7375 23 27.7375ZM36.095 34.9825C35.8629 36.3554 35.1008 37.5821 33.9729 38.3986C32.8451 39.215 31.4417 39.5558 30.065 39.3475C28.9802 39.1946 27.968 38.7141 27.1638 37.9702C26.3596 37.2263 25.8018 36.2546 25.565 35.185L25.25 33.835L25.7225 31.765C27.7981 31.089 29.5574 29.6816 30.6725 27.805L31.7975 28.48H32L33.485 29.3575C34.4498 29.9085 35.2194 30.7459 35.687 31.7538C36.1547 32.7616 36.2973 33.89 36.095 34.9825ZM40.46 21.4825C40.0175 22.3768 39.3348 23.1304 38.4884 23.6589C37.6421 24.1874 36.6653 24.4699 35.6675 24.475H35.1275L33.6875 24.25L32 23.3275C31.9969 21.1398 31.197 19.0282 29.75 17.3875L30.7175 16.555L32.135 15.25C33.0594 14.4282 34.2408 13.9532 35.4768 13.9066C36.7129 13.8599 37.9267 14.2444 38.9104 14.9942C39.8942 15.744 40.5867 16.8124 40.8694 18.0166C41.1521 19.2208 41.0074 20.4858 40.46 21.595V21.4825Z" fill="#C2C7E3"/>
</svg>
