<svg width="36" height="36" viewBox="0 0 36 36" fill="none" xmlns="http://www.w3.org/2000/svg">
<path d="M26.6695 0.330493C26.2336 -0.105444 25.5164 -0.105444 25.0805 0.330493L23.9555 1.45549C23.5195 1.89143 23.5195 2.60862 23.9555 3.04456L25.0805 4.16956C25.5164 4.60549 26.2336 4.60549 26.6695 4.16956L27.7945 3.04456C28.2305 2.60862 28.2305 1.89143 27.7945 1.45549L26.6695 0.330493ZM8.1 11.925C8.6625 11.5031 9.3586 11.25 10.125 11.25C11.9883 11.25 13.5 12.7617 13.5 14.625C13.5 16.4883 11.9883 18 10.125 18H7.72031C7.18594 18 6.75 18.436 6.75 18.9703C6.75 19.0758 6.76406 19.1742 6.79922 19.2797L7.36172 20.9672C7.6711 21.8883 8.52891 22.5071 9.49922 22.5071H10.125H11.25C13.732 22.5071 15.75 24.525 15.75 27.0071C15.75 29.4891 13.732 31.5071 11.25 31.5071C7.67813 31.5071 5.43516 29.9953 4.06406 28.4977C3.36797 27.7383 2.89688 26.9789 2.59453 26.4094C2.44688 26.1282 2.34141 25.8961 2.27813 25.7344C2.24297 25.6571 2.22188 25.5938 2.20781 25.5586L2.19375 25.5235V25.5164C2.01094 24.968 1.44141 24.6516 0.878908 24.7782C0.309377 24.9047 -0.0632795 25.4391 0.00703297 26.0156L1.125 25.875C0.00703306 26.0156 0.00703297 26.0156 0.00703297 26.0156V26.0227L0.0140642 26.0508C0.0140642 26.0719 0.0210955 26.1071 0.0281267 26.1422C0.0421892 26.2196 0.0562517 26.3321 0.0843767 26.4657C0.140627 26.7399 0.225002 27.1266 0.358595 27.5836C0.625783 28.4977 1.08281 29.7211 1.85625 30.9586C3.42422 33.4828 6.28594 36 11.25 36C16.2211 36 20.25 31.9711 20.25 27C20.25 25.3617 19.8141 23.8219 19.0477 22.5H20.6367C22.4297 22.5 24.1453 21.7899 25.4109 20.5242L27.2742 18.661C27.6961 18.2391 28.2656 18 28.8633 18H29.25C30.4945 18 31.5 19.0055 31.5 20.25V27C31.5 28.2446 30.4945 29.25 29.25 29.25C27.443 29.25 26.3391 28.3711 25.65 27.45C25.2984 26.9789 25.0594 26.5078 24.9117 26.1422C24.8344 25.9664 24.7852 25.8188 24.757 25.7203C24.743 25.6711 24.7289 25.636 24.7219 25.6149L24.7148 25.5938C24.5813 25.0805 24.1102 24.7219 23.5758 24.743C23.0414 24.7641 22.5984 25.1578 22.5141 25.6852L23.625 25.875C22.5141 25.6922 22.5141 25.6922 22.5141 25.6922V25.6992L22.507 25.7203C22.507 25.7414 22.5 25.7625 22.493 25.7977C22.4859 25.861 22.4719 25.9453 22.4648 26.0508C22.4438 26.2617 22.4227 26.5641 22.4227 26.9227C22.4227 27.6328 22.5 28.6031 22.8305 29.6016C23.168 30.6071 23.7727 31.6617 24.8414 32.4633C25.9242 33.2789 27.3727 33.75 29.25 33.75C32.9766 33.75 36 30.7266 36 27V20.25C36 16.5235 32.9766 13.5 29.25 13.5H28.8633C27.0703 13.5 25.3547 14.2102 24.0891 15.4758L22.2258 17.3391C21.8039 17.761 21.2344 18 20.6367 18H17.2406C17.7258 16.9805 18 15.8344 18 14.625C18 10.2727 14.4773 6.75002 10.125 6.75002C8.35313 6.75002 6.71485 7.33362 5.4 8.32502C4.4086 9.07034 4.20469 10.4836 4.95 11.475C5.69531 12.4664 7.1086 12.6703 8.1 11.925ZM19.7508 4.68987C19.3289 4.40862 18.7664 4.44377 18.3797 4.78127C17.993 5.11877 17.8875 5.67424 18.1195 6.13127L19.125 5.62502C18.1195 6.13127 18.1195 6.13127 18.1195 6.13127V6.13831L18.1266 6.15237L18.1547 6.20159C18.1758 6.24377 18.2109 6.30002 18.2531 6.37034C18.3375 6.51096 18.457 6.70784 18.6117 6.9469C18.9211 7.41799 19.3922 8.03674 20.018 8.66252C21.2625 9.92112 23.2242 11.25 25.875 11.25C28.0688 11.25 29.8547 10.5188 31.0711 9.82971C31.6828 9.47815 32.168 9.13362 32.5055 8.8594C32.6742 8.72581 32.8078 8.60627 32.9062 8.51487C32.9555 8.47268 32.9977 8.43049 33.0258 8.40237L33.068 8.36721L33.082 8.35315L33.0891 8.34612C33.0891 8.34612 33.0891 8.34612 31.5 6.75706L33.0891 8.34612C33.968 7.46721 33.968 6.03987 33.0891 5.16096C32.2172 4.28909 30.7969 4.28206 29.918 5.1469C29.9109 5.15393 29.9039 5.16096 29.8828 5.17502C29.8477 5.21018 29.7773 5.26643 29.6859 5.34377C29.4961 5.49846 29.2078 5.7094 28.8352 5.92034C28.0828 6.35627 27.0563 6.75002 25.875 6.75002C24.4125 6.75002 22.8938 6.25784 21.6914 5.72346C21.1008 5.46331 20.6086 5.19612 20.2641 4.99924C20.0953 4.90081 19.9617 4.82346 19.8703 4.76721C19.8281 4.73909 19.793 4.71799 19.7719 4.70393L19.7508 4.68987Z" fill="#C2C7E3"/>
</svg>
