<svg width="161" height="18" viewBox="0 0 161 18" fill="none" xmlns="http://www.w3.org/2000/svg">
<path d="M156.614 17V15.418C156.06 15.7227 155.462 15.9922 154.821 16.2266C154.189 16.4609 153.528 16.6602 152.841 16.8242C152.153 16.9883 151.443 17.1094 150.708 17.1875C149.982 17.2734 149.247 17.3164 148.505 17.3164C147.638 17.3164 146.798 17.2344 145.985 17.0703C145.181 16.9062 144.466 16.6406 143.841 16.2734C143.216 15.9062 142.712 15.4258 142.329 14.832C141.954 14.2383 141.767 13.5117 141.767 12.6523C141.767 11.5664 142.064 10.6641 142.657 9.94531C143.251 9.21875 144.157 8.625 145.376 8.16406C146.595 7.70312 148.134 7.34766 149.993 7.09766C151.86 6.84766 154.068 6.65234 156.614 6.51172V6.17188C156.614 5.90625 156.544 5.64453 156.403 5.38672C156.263 5.12109 156.005 4.89062 155.63 4.69531C155.263 4.49219 154.755 4.32812 154.107 4.20312C153.466 4.07812 152.646 4.01562 151.646 4.01562C150.857 4.01562 150.075 4.05859 149.302 4.14453C148.536 4.22266 147.794 4.33203 147.075 4.47266C146.364 4.61328 145.689 4.77734 145.048 4.96484C144.407 5.15234 143.825 5.34766 143.302 5.55078V1.68359C143.849 1.54297 144.462 1.40625 145.142 1.27344C145.821 1.14062 146.528 1.02734 147.263 0.933594C147.997 0.832031 148.739 0.753906 149.489 0.699219C150.239 0.636719 150.958 0.605469 151.646 0.605469C152.997 0.605469 154.243 0.71875 155.384 0.945312C156.525 1.16406 157.505 1.50781 158.325 1.97656C159.153 2.44531 159.798 3.03906 160.259 3.75781C160.728 4.47656 160.962 5.33203 160.962 6.32422V17H156.614ZM156.614 9.65234C154.943 9.71484 153.521 9.80469 152.349 9.92188C151.185 10.0391 150.216 10.1758 149.443 10.332C148.669 10.4883 148.06 10.6562 147.614 10.8359C147.177 11.0156 146.849 11.1992 146.63 11.3867C146.411 11.5742 146.275 11.7617 146.22 11.9492C146.173 12.1367 146.15 12.3086 146.15 12.4648C146.15 12.6523 146.2 12.8359 146.302 13.0156C146.403 13.1875 146.579 13.3398 146.829 13.4727C147.087 13.6055 147.427 13.7109 147.849 13.7891C148.271 13.8672 148.802 13.9062 149.443 13.9062C150.153 13.9062 150.849 13.8516 151.528 13.7422C152.208 13.6328 152.853 13.4844 153.462 13.2969C154.071 13.1016 154.642 12.875 155.173 12.6172C155.712 12.3516 156.193 12.0703 156.614 11.7734V9.65234Z" fill="#4F463D"/>
<path d="M135.735 17V10.2852H124.673V17H120.325V0.898438H124.673V6.75781H135.735V0.898438H140.083V17H135.735Z" fill="#4F463D"/>
<path d="M117.024 5.43359C116.72 5.28516 116.317 5.11719 115.817 4.92969C115.317 4.74219 114.751 4.56641 114.118 4.40234C113.485 4.23047 112.798 4.08984 112.055 3.98047C111.313 3.86328 110.552 3.80469 109.77 3.80469C109.145 3.80469 108.61 3.82422 108.165 3.86328C107.727 3.90234 107.356 3.95312 107.052 4.01562C106.755 4.07812 106.516 4.15234 106.337 4.23828C106.165 4.31641 106.032 4.39844 105.938 4.48438C105.845 4.57031 105.782 4.65625 105.751 4.74219C105.727 4.82812 105.716 4.90625 105.716 4.97656C105.716 5.21094 105.833 5.41797 106.067 5.59766C106.302 5.76953 106.622 5.92578 107.028 6.06641C107.434 6.19922 107.907 6.32812 108.446 6.45312C108.985 6.57031 109.555 6.69531 110.157 6.82812C110.766 6.95312 111.391 7.09375 112.032 7.25C112.68 7.39844 113.305 7.57422 113.907 7.77734C114.516 7.98047 115.091 8.21875 115.63 8.49219C116.169 8.75781 116.641 9.07031 117.048 9.42969C117.454 9.78906 117.774 10.2031 118.009 10.6719C118.243 11.1406 118.36 11.6758 118.36 12.2773C118.36 13.0508 118.223 13.7148 117.95 14.2695C117.677 14.8242 117.309 15.293 116.848 15.6758C116.395 16.0586 115.868 16.3672 115.266 16.6016C114.665 16.8281 114.032 17.0039 113.368 17.1289C112.712 17.2539 112.044 17.3359 111.364 17.375C110.692 17.4141 110.052 17.4336 109.442 17.4336C107.848 17.4336 106.372 17.3008 105.012 17.0352C103.661 16.7773 102.466 16.4531 101.427 16.0625V12.2188C102.497 12.8125 103.716 13.2773 105.083 13.6133C106.458 13.9492 107.927 14.1172 109.489 14.1172C110.411 14.1172 111.161 14.0703 111.739 13.9766C112.325 13.875 112.782 13.75 113.11 13.6016C113.438 13.4453 113.661 13.2773 113.778 13.0977C113.895 12.918 113.954 12.7461 113.954 12.582C113.954 12.3242 113.837 12.1016 113.602 11.9141C113.368 11.7188 113.048 11.5508 112.641 11.4102C112.235 11.2617 111.762 11.1289 111.223 11.0117C110.684 10.8867 110.11 10.7656 109.501 10.6484C108.899 10.5234 108.278 10.3906 107.637 10.25C106.997 10.1094 106.372 9.94531 105.762 9.75781C105.161 9.5625 104.591 9.33984 104.052 9.08984C103.512 8.83203 103.04 8.53125 102.634 8.1875C102.227 7.83594 101.907 7.43359 101.673 6.98047C101.438 6.51953 101.321 5.98828 101.321 5.38672C101.321 4.67578 101.446 4.0625 101.696 3.54688C101.946 3.03125 102.282 2.59375 102.704 2.23438C103.134 1.86719 103.626 1.57031 104.18 1.34375C104.743 1.11719 105.333 0.941406 105.95 0.816406C106.567 0.691406 107.192 0.605469 107.825 0.558594C108.458 0.511719 109.059 0.488281 109.63 0.488281C110.255 0.488281 110.895 0.519531 111.552 0.582031C112.216 0.644531 112.868 0.734375 113.509 0.851562C114.149 0.960938 114.766 1.08984 115.36 1.23828C115.962 1.38672 116.516 1.54297 117.024 1.70703V5.43359Z" fill="#4F463D"/>
<path d="M100.387 8.96094C100.387 10.3438 100.133 11.5664 99.6256 12.6289C99.1178 13.6836 98.3913 14.5664 97.4459 15.2773C96.5006 15.9883 95.3522 16.5273 94.0006 16.8945C92.6569 17.2539 91.1452 17.4336 89.4655 17.4336C87.7858 17.4336 86.2663 17.2539 84.9069 16.8945C83.5553 16.5273 82.403 15.9883 81.4498 15.2773C80.4967 14.5664 79.7623 13.6836 79.2467 12.6289C78.7311 11.5664 78.4733 10.3438 78.4733 8.96094C78.4733 7.57812 78.7311 6.35938 79.2467 5.30469C79.7623 4.24219 80.4967 3.35547 81.4498 2.64453C82.403 1.93359 83.5553 1.39844 84.9069 1.03906C86.2663 0.671875 87.7858 0.488281 89.4655 0.488281C91.1452 0.488281 92.6569 0.671875 94.0006 1.03906C95.3522 1.39844 96.5006 1.93359 97.4459 2.64453C98.3913 3.35547 99.1178 4.24219 99.6256 5.30469C100.133 6.35938 100.387 7.57812 100.387 8.96094ZM95.9928 8.96094C95.9928 8.35938 95.8952 7.76172 95.6998 7.16797C95.5123 6.56641 95.1725 6.02734 94.6803 5.55078C94.1959 5.07422 93.5319 4.6875 92.6881 4.39062C91.8444 4.09375 90.7702 3.94531 89.4655 3.94531C88.5905 3.94531 87.8209 4.01562 87.1569 4.15625C86.4928 4.28906 85.9186 4.47656 85.4342 4.71875C84.9498 4.96094 84.5436 5.24609 84.2155 5.57422C83.8873 5.89453 83.6256 6.24219 83.4303 6.61719C83.235 6.98438 83.0944 7.37109 83.0084 7.77734C82.9303 8.17578 82.8913 8.57031 82.8913 8.96094C82.8913 9.35938 82.9303 9.76172 83.0084 10.168C83.0944 10.5742 83.235 10.9648 83.4303 11.3398C83.6256 11.707 83.8873 12.0508 84.2155 12.3711C84.5436 12.6914 84.9498 12.9727 85.4342 13.2148C85.9186 13.4492 86.4928 13.6367 87.1569 13.7773C87.8209 13.9102 88.5905 13.9766 89.4655 13.9766C90.7702 13.9766 91.8444 13.8281 92.6881 13.5312C93.5319 13.2344 94.1959 12.8477 94.6803 12.3711C95.1725 11.8945 95.5123 11.3594 95.6998 10.7656C95.8952 10.1641 95.9928 9.5625 95.9928 8.96094Z" fill="#4F463D"/>
<path d="M71.9848 4.40234V17H67.6372V4.40234H60.8052V0.898438H78.8286V4.40234H71.9848Z" fill="#4F463D"/>
<path d="M55.805 17V7.97656C55.805 7.375 55.7542 6.83203 55.6527 6.34766C55.5511 5.85547 55.3597 5.4375 55.0784 5.09375C54.805 4.74219 54.4183 4.47266 53.9183 4.28516C53.4261 4.08984 52.7894 3.99219 52.0081 3.99219C51.4144 3.99219 50.7894 4.07422 50.1331 4.23828C49.4847 4.39453 48.8402 4.60547 48.1995 4.87109C47.5589 5.13672 46.9456 5.44531 46.3597 5.79688C45.7816 6.14844 45.2659 6.51562 44.8128 6.89844V17H40.4652V0.898438H44.8128V3.10156C45.3597 2.78906 45.9417 2.48047 46.5589 2.17578C47.1761 1.86328 47.8323 1.58203 48.5277 1.33203C49.223 1.08203 49.9613 0.878906 50.7425 0.722656C51.5238 0.566406 52.348 0.488281 53.2152 0.488281C54.3011 0.488281 55.2698 0.621094 56.1214 0.886719C56.9808 1.14453 57.7073 1.51562 58.3011 2C58.8948 2.47656 59.348 3.05859 59.6605 3.74609C59.9808 4.42578 60.1409 5.1875 60.1409 6.03125V17H55.805Z" fill="#4F463D"/>
<path d="M33.3088 17V15.418C32.7541 15.7227 32.1564 15.9922 31.5158 16.2266C30.883 16.4609 30.2228 16.6602 29.5353 16.8242C28.8478 16.9883 28.1369 17.1094 27.4025 17.1875C26.6759 17.2734 25.9416 17.3164 25.1994 17.3164C24.3322 17.3164 23.4923 17.2344 22.6798 17.0703C21.8752 16.9062 21.1603 16.6406 20.5353 16.2734C19.9103 15.9062 19.4064 15.4258 19.0236 14.832C18.6486 14.2383 18.4611 13.5117 18.4611 12.6523C18.4611 11.5664 18.758 10.6641 19.3517 9.94531C19.9455 9.21875 20.8517 8.625 22.0705 8.16406C23.2892 7.70312 24.8283 7.34766 26.6877 7.09766C28.5548 6.84766 30.7619 6.65234 33.3088 6.51172V6.17188C33.3088 5.90625 33.2384 5.64453 33.0978 5.38672C32.9572 5.12109 32.6994 4.89062 32.3244 4.69531C31.9572 4.49219 31.4494 4.32812 30.8009 4.20312C30.1603 4.07812 29.34 4.01562 28.34 4.01562C27.5509 4.01562 26.7697 4.05859 25.9963 4.14453C25.2306 4.22266 24.4884 4.33203 23.7697 4.47266C23.0588 4.61328 22.383 4.77734 21.7423 4.96484C21.1017 5.15234 20.5197 5.34766 19.9963 5.55078V1.68359C20.5431 1.54297 21.1564 1.40625 21.8361 1.27344C22.5158 1.14062 23.2228 1.02734 23.9572 0.933594C24.6916 0.832031 25.4338 0.753906 26.1838 0.699219C26.9338 0.636719 27.6525 0.605469 28.34 0.605469C29.6916 0.605469 30.9377 0.71875 32.0783 0.945312C33.2189 1.16406 34.1994 1.50781 35.0197 1.97656C35.8478 2.44531 36.4923 3.03906 36.9533 3.75781C37.422 4.47656 37.6564 5.33203 37.6564 6.32422V17H33.3088ZM33.3088 9.65234C31.6369 9.71484 30.215 9.80469 29.0431 9.92188C27.8791 10.0391 26.9103 10.1758 26.1369 10.332C25.3634 10.4883 24.7541 10.6562 24.3088 10.8359C23.8713 11.0156 23.5431 11.1992 23.3244 11.3867C23.1056 11.5742 22.9689 11.7617 22.9142 11.9492C22.8673 12.1367 22.8439 12.3086 22.8439 12.4648C22.8439 12.6523 22.8947 12.8359 22.9963 13.0156C23.0978 13.1875 23.2736 13.3398 23.5236 13.4727C23.7814 13.6055 24.1213 13.7109 24.5431 13.7891C24.965 13.8672 25.4963 13.9062 26.1369 13.9062C26.8478 13.9062 27.5431 13.8516 28.2228 13.7422C28.9025 13.6328 29.547 13.4844 30.1564 13.2969C30.7658 13.1016 31.3361 12.875 31.8673 12.6172C32.4064 12.3516 32.8869 12.0703 33.3088 11.7734V9.65234Z" fill="#4F463D"/>
<path d="M16.3555 5.43359C16.0508 5.28516 15.6484 5.11719 15.1484 4.92969C14.6484 4.74219 14.082 4.56641 13.4492 4.40234C12.8164 4.23047 12.1289 4.08984 11.3867 3.98047C10.6445 3.86328 9.88281 3.80469 9.10156 3.80469C8.47656 3.80469 7.94141 3.82422 7.49609 3.86328C7.05859 3.90234 6.6875 3.95312 6.38281 4.01562C6.08594 4.07812 5.84766 4.15234 5.66797 4.23828C5.49609 4.31641 5.36328 4.39844 5.26953 4.48438C5.17578 4.57031 5.11328 4.65625 5.08203 4.74219C5.05859 4.82812 5.04688 4.90625 5.04688 4.97656C5.04688 5.21094 5.16406 5.41797 5.39844 5.59766C5.63281 5.76953 5.95312 5.92578 6.35938 6.06641C6.76562 6.19922 7.23828 6.32812 7.77734 6.45312C8.31641 6.57031 8.88672 6.69531 9.48828 6.82812C10.0977 6.95312 10.7227 7.09375 11.3633 7.25C12.0117 7.39844 12.6367 7.57422 13.2383 7.77734C13.8477 7.98047 14.4219 8.21875 14.9609 8.49219C15.5 8.75781 15.9727 9.07031 16.3789 9.42969C16.7852 9.78906 17.1055 10.2031 17.3398 10.6719C17.5742 11.1406 17.6914 11.6758 17.6914 12.2773C17.6914 13.0508 17.5547 13.7148 17.2812 14.2695C17.0078 14.8242 16.6406 15.293 16.1797 15.6758C15.7266 16.0586 15.1992 16.3672 14.5977 16.6016C13.9961 16.8281 13.3633 17.0039 12.6992 17.1289C12.043 17.2539 11.375 17.3359 10.6953 17.375C10.0234 17.4141 9.38281 17.4336 8.77344 17.4336C7.17969 17.4336 5.70312 17.3008 4.34375 17.0352C2.99219 16.7773 1.79688 16.4531 0.757812 16.0625V12.2188C1.82812 12.8125 3.04688 13.2773 4.41406 13.6133C5.78906 13.9492 7.25781 14.1172 8.82031 14.1172C9.74219 14.1172 10.4922 14.0703 11.0703 13.9766C11.6562 13.875 12.1133 13.75 12.4414 13.6016C12.7695 13.4453 12.9922 13.2773 13.1094 13.0977C13.2266 12.918 13.2852 12.7461 13.2852 12.582C13.2852 12.3242 13.168 12.1016 12.9336 11.9141C12.6992 11.7188 12.3789 11.5508 11.9727 11.4102C11.5664 11.2617 11.0938 11.1289 10.5547 11.0117C10.0156 10.8867 9.44141 10.7656 8.83203 10.6484C8.23047 10.5234 7.60938 10.3906 6.96875 10.25C6.32812 10.1094 5.70312 9.94531 5.09375 9.75781C4.49219 9.5625 3.92188 9.33984 3.38281 9.08984C2.84375 8.83203 2.37109 8.53125 1.96484 8.1875C1.55859 7.83594 1.23828 7.43359 1.00391 6.98047C0.769531 6.51953 0.652344 5.98828 0.652344 5.38672C0.652344 4.67578 0.777344 4.0625 1.02734 3.54688C1.27734 3.03125 1.61328 2.59375 2.03516 2.23438C2.46484 1.86719 2.95703 1.57031 3.51172 1.34375C4.07422 1.11719 4.66406 0.941406 5.28125 0.816406C5.89844 0.691406 6.52344 0.605469 7.15625 0.558594C7.78906 0.511719 8.39062 0.488281 8.96094 0.488281C9.58594 0.488281 10.2266 0.519531 10.8828 0.582031C11.5469 0.644531 12.1992 0.734375 12.8398 0.851562C13.4805 0.960938 14.0977 1.08984 14.6914 1.23828C15.293 1.38672 15.8477 1.54297 16.3555 1.70703V5.43359Z" fill="#4F463D"/>
</svg>
